<?xml version="1.0" encoding="UTF-8"?>
<!DOCTYPE svg PUBLIC "-//W3C//DTD SVG 1.1//EN" "http://www.w3.org/Graphics/SVG/1.1/DTD/svg11.dtd">
<svg xmlns="http://www.w3.org/2000/svg" version="1.1" width="96px" height="96px" style="shape-rendering:geometricPrecision; text-rendering:geometricPrecision; image-rendering:optimizeQuality; fill-rule:evenodd; clip-rule:evenodd" xmlns:xlink="http://www.w3.org/1999/xlink">
<g><path style="opacity:0.997" fill="#455963" d="M 79.5,57.5 C 72.721,68.0831 63.0544,74.5831 50.5,77C 54.8695,77.4248 59.2028,77.0915 63.5,76C 67.422,74.2019 71.422,72.7019 75.5,71.5C 65.0187,89.3814 50.352,93.8814 31.5,85C 26.5949,81.5971 22.5949,77.4305 19.5,72.5C 19.4162,69.6726 18.7496,67.006 17.5,64.5C 16.0897,60.2953 15.423,55.962 15.5,51.5C 15.5,47.5 15.5,43.5 15.5,39.5C 22.1976,29.3098 31.5309,22.8098 43.5,20C 33.444,19.5953 24.444,22.4286 16.5,28.5C 21.3838,13.6302 31.7171,5.96352 47.5,5.5C 63.6424,6.1473 74.1424,14.1473 79,29.5C 79.4998,38.8274 79.6665,48.1607 79.5,57.5 Z"/></g>
<g><path style="opacity:1" fill="#27343a" d="M 15.5,39.5 C 15.244,35.7307 15.5773,32.0641 16.5,28.5C 24.444,22.4286 33.444,19.5953 43.5,20C 31.5309,22.8098 22.1976,29.3098 15.5,39.5 Z"/></g>
<g><path style="opacity:1" fill="#fab44d" d="M 35.5,33.5 C 44.8791,33.2244 54.2124,33.7244 63.5,35C 73.2399,38.7869 75.5733,45.1203 70.5,54C 68.4194,54.8687 66.2527,55.3687 64,55.5C 58.2414,53.8587 52.4081,52.5253 46.5,51.5C 42.0393,52.1529 37.706,53.3196 33.5,55C 24.3333,56.5 20.5,52.6667 22,43.5C 22.7922,41.4127 23.9588,39.5793 25.5,38C 28.8153,36.1702 32.1486,34.6702 35.5,33.5 Z"/></g>
<g><path style="opacity:1" fill="#7f4d1b" d="M 29.5,40.5 C 32.09,41.1283 34.4234,42.295 36.5,44C 38.2552,44.7199 39.0885,45.8866 39,47.5C 32.2148,50.5769 29.0482,48.2436 29.5,40.5 Z"/></g>
<g><path style="opacity:1" fill="#7f4d1c" d="M 63.5,40.5 C 66.632,44.5829 65.632,47.5829 60.5,49.5C 58.3367,49.2547 56.67,48.2547 55.5,46.5C 58.2347,44.4793 60.9014,42.4793 63.5,40.5 Z"/></g>
<g><path style="opacity:0.949" fill="#36464e" d="M 15.5,51.5 C 15.423,55.962 16.0897,60.2953 17.5,64.5C 16.6236,64.3691 15.9569,64.7025 15.5,65.5C 14.5077,69.4924 12.5077,72.8258 9.5,75.5C 8.21959,76.9313 6.55292,77.5979 4.5,77.5C 4.54101,69.7006 6.37434,62.3673 10,55.5C 11.451,53.5359 13.2843,52.2026 15.5,51.5 Z"/></g>
<g><path style="opacity:1" fill="#29363c" d="M 79.5,57.5 C 79.095,62.4564 77.7617,67.1231 75.5,71.5C 71.422,72.7019 67.422,74.2019 63.5,76C 59.2028,77.0915 54.8695,77.4248 50.5,77C 63.0544,74.5831 72.721,68.0831 79.5,57.5 Z"/></g>
<g><path style="opacity:0.981" fill="#263238" d="M 17.5,64.5 C 18.7496,67.006 19.4162,69.6726 19.5,72.5C 19.0583,76.6723 17.5583,80.339 15,83.5C 12.4012,81.284 10.5679,78.6173 9.5,75.5C 12.5077,72.8258 14.5077,69.4924 15.5,65.5C 15.9569,64.7025 16.6236,64.3691 17.5,64.5 Z"/></g>
</svg>
