<?xml version="1.0" encoding="UTF-8"?>
<!DOCTYPE svg PUBLIC "-//W3C//DTD SVG 1.1//EN" "http://www.w3.org/Graphics/SVG/1.1/DTD/svg11.dtd">
<svg xmlns="http://www.w3.org/2000/svg" version="1.1" width="1000px" height="1000px" style="shape-rendering:geometricPrecision; text-rendering:geometricPrecision; image-rendering:optimizeQuality; fill-rule:evenodd; clip-rule:evenodd" xmlns:xlink="http://www.w3.org/1999/xlink">
<g><path style="opacity:1" fill="#0d141e" d="M -0.5,-0.5 C 332.833,-0.5 666.167,-0.5 999.5,-0.5C 999.5,332.833 999.5,666.167 999.5,999.5C 666.167,999.5 332.833,999.5 -0.5,999.5C -0.5,666.167 -0.5,332.833 -0.5,-0.5 Z"/></g>
<g><path style="opacity:1" fill="#fdfdfd" d="M 245.5,332.5 C 271.835,332.333 298.169,332.5 324.5,333C 325,333.5 325.5,334 326,334.5C 326.5,375.499 326.667,416.499 326.5,457.5C 354.167,457.5 381.833,457.5 409.5,457.5C 409.333,416.832 409.5,376.165 410,335.5C 410.833,334.667 411.667,333.833 412.5,333C 438.5,332.333 464.5,332.333 490.5,333C 491.333,333.833 492.167,334.667 493,335.5C 493.667,444.833 493.667,554.167 493,663.5C 492.167,664.333 491.333,665.167 490.5,666C 464.5,666.667 438.5,666.667 412.5,666C 411.667,665.167 410.833,664.333 410,663.5C 409.5,622.835 409.333,582.168 409.5,541.5C 381.833,541.5 354.167,541.5 326.5,541.5C 326.667,582.501 326.5,623.501 326,664.5C 325.5,665 325,665.5 324.5,666C 298.167,666.667 271.833,666.667 245.5,666C 245,665.5 244.5,665 244,664.5C 243.333,554.5 243.333,444.5 244,334.5C 244.717,333.956 245.217,333.289 245.5,332.5 Z"/></g>
<g><path style="opacity:1" fill="#00e963" d="M 537.5,332.5 C 619.167,332.333 700.834,332.5 782.5,333C 783,333.5 783.5,334 784,334.5C 784.667,444.5 784.667,554.5 784,664.5C 783.5,665 783,665.5 782.5,666C 700.833,666.667 619.167,666.667 537.5,666C 536.667,665.167 535.833,664.333 535,663.5C 534.333,554.167 534.333,444.833 535,335.5C 536.045,334.627 536.878,333.627 537.5,332.5 Z"/></g>
</svg>
